HIERARCHY
ROOT Hips
{
  OFFSET 5.84602e-005 68.8428 3.50346
  CHANNELS 6 Xposition Yposition Zposition Zrotation Xrotation Yrotation
  JOINT Spine
  {
    OFFSET 0 8.597 -4.6522
    CHANNELS 3 Zrotation Xrotation Yrotation
    JOINT Spine1
    {
      OFFSET 0 7.8454 0.4098
      CHANNELS 3 Zrotation Xrotation Yrotation
      JOINT Spine2
      {
        OFFSET 0 9.7078 -2.1609
        CHANNELS 3 Zrotation Xrotation Yrotation
        JOINT Neck
        {
          OFFSET 0 21.8761 -0.4549
          CHANNELS 3 Zrotation Xrotation Yrotation
          JOINT Head
          {
            OFFSET 0 12.3537 3.3602
            CHANNELS 3 Zrotation Xrotation Yrotation
            End Site
            {
              OFFSET 0.0001 18.9506 0.5657
            }
          }
        }
        JOINT LeftShoulder
        {
          OFFSET 2.2086 21.1115 7.2329
          CHANNELS 3 Zrotation Xrotation Yrotation
          JOINT LeftArm
          {
            OFFSET 13.1193 3.0282 -4.8998
            CHANNELS 3 Zrotation Xrotation Yrotation
            JOINT LeftForeArm
            {
              OFFSET 27.4081 -0.0973053 -0.2375
              CHANNELS 3 Zrotation Xrotation Yrotation
              JOINT LeftHand
              {
                OFFSET 22.8641 0.0662994 -0.1369
                CHANNELS 3 Zrotation Xrotation Yrotation
                JOINT LeftHandIndex1
                {
                  OFFSET 8.8614 0.775009 2.4612
                  CHANNELS 3 Zrotation Xrotation Yrotation
                  JOINT LeftHandIndex2
                  {
                    OFFSET 3.3146 -0.808304 0.5841
                    CHANNELS 3 Zrotation Xrotation Yrotation
                    JOINT LeftHandIndex3
                    {
                      OFFSET 2.2628 -0.552002 0.3989
                      CHANNELS 3 Zrotation Xrotation Yrotation
                      End Site
                      {
                        OFFSET 1.6102 -0.4807 0.2612
                      }
                    }
                  }
                }
                JOINT LeftHandMiddle1
                {
                  OFFSET 8.9937 0.895004 0.2143
                  CHANNELS 3 Zrotation Xrotation Yrotation
                  JOINT LeftHandMiddle2
                  {
                    OFFSET 4.0984 0.0113983 -0.0242
                    CHANNELS 3 Zrotation Xrotation Yrotation
                    JOINT LeftHandMiddle3
                    {
                      OFFSET 2.2716 0.00689697 -0.0138001
                      CHANNELS 3 Zrotation Xrotation Yrotation
                      End Site
                      {
                        OFFSET 2.0404 -0.1441 0.0027
                      }
                    }
                  }
                }
                JOINT LeftHandRing1
                {
                  OFFSET 8.5234 0.597198 -2.0164
                  CHANNELS 3 Zrotation Xrotation Yrotation
                  JOINT LeftHandRing2
                  {
                    OFFSET 3.7188 -0.188293 -0.2328
                    CHANNELS 3 Zrotation Xrotation Yrotation
                    JOINT LeftHandRing3
                    {
                      OFFSET 2.1191 -0.106598 -0.1332
                      CHANNELS 3 Zrotation Xrotation Yrotation
                      End Site
                      {
                        OFFSET 1.8737 -0.2304 -0.0886
                      }
                    }
                  }
                }
                JOINT LeftHandPinky1
                {
                  OFFSET 7.9094 -0.601089 -3.4825
                  CHANNELS 3 Zrotation Xrotation Yrotation
                  JOINT LeftHandPinky2
                  {
                    OFFSET 2.2874 -0.477005 -0.6314
                    CHANNELS 3 Zrotation Xrotation Yrotation
                    JOINT LeftHandPinky3
                    {
                      OFFSET 1.6774 -0.349396 -0.4633
                      CHANNELS 3 Zrotation Xrotation Yrotation
                      End Site
                      {
                        OFFSET 1.4888 -0.4091 -0.3416
                      }
                    }
                  }
                }
                JOINT LeftHandThumb1
                {
                  OFFSET 1.833 -1.3875 1.3896
                  CHANNELS 3 Zrotation Xrotation Yrotation
                  JOINT LeftHandThumb2
                  {
                    OFFSET 3.4129 -1.121 2.5732
                    CHANNELS 3 Zrotation Xrotation Yrotation
                    JOINT LeftHandThumb3
                    {
                      OFFSET 2.2474 -0.804199 1.6192
                      CHANNELS 3 Zrotation Xrotation Yrotation
                      End Site
                      {
                        OFFSET 1.6527 -0.5689 1.1317
                      }
                    }
                  }
                }
              }
            }
          }
        }
        JOINT RightShoulder
        {
          OFFSET -2.2086 21.1115 7.2329
          CHANNELS 3 Zrotation Xrotation Yrotation
          JOINT RightArm
          {
            OFFSET -13.1216 3.0287 -4.9007
            CHANNELS 3 Zrotation Xrotation Yrotation
            JOINT RightForeArm
            {
              OFFSET -27.4081 -0.0973053 -0.2375
              CHANNELS 3 Zrotation Xrotation Yrotation
              JOINT RightHand
              {
                OFFSET -22.8641 0.0664063 -0.1369
                CHANNELS 3 Zrotation Xrotation Yrotation
                JOINT RightHandIndex1
                {
                  OFFSET -8.8614 0.774994 2.4612
                  CHANNELS 3 Zrotation Xrotation Yrotation
                  JOINT RightHandIndex2
                  {
                    OFFSET -3.3146 -0.808304 0.5841
                    CHANNELS 3 Zrotation Xrotation Yrotation
                    JOINT RightHandIndex3
                    {
                      OFFSET -2.2628 -0.552002 0.3989
                      CHANNELS 3 Zrotation Xrotation Yrotation
                      End Site
                      {
                        OFFSET -1.6102 -0.4807 0.2612
                      }
                    }
                  }
                }
                JOINT RightHandMiddle1
                {
                  OFFSET -8.9937 0.894989 0.2143
                  CHANNELS 3 Zrotation Xrotation Yrotation
                  JOINT RightHandMiddle2
                  {
                    OFFSET -4.0984 0.0113983 -0.0242
                    CHANNELS 3 Zrotation Xrotation Yrotation
                    JOINT RightHandMiddle3
                    {
                      OFFSET -2.2716 0.00691223 -0.0138001
                      CHANNELS 3 Zrotation Xrotation Yrotation
                      End Site
                      {
                        OFFSET -2.0404 -0.1441 0.0027
                      }
                    }
                  }
                }
                JOINT RightHandRing1
                {
                  OFFSET -8.5234 0.597198 -2.0164
                  CHANNELS 3 Zrotation Xrotation Yrotation
                  JOINT RightHandRing2
                  {
                    OFFSET -3.7188 -0.188309 -0.2328
                    CHANNELS 3 Zrotation Xrotation Yrotation
                    JOINT RightHandRing3
                    {
                      OFFSET -2.1191 -0.106598 -0.1332
                      CHANNELS 3 Zrotation Xrotation Yrotation
                      End Site
                      {
                        OFFSET -1.8737 -0.2304 -0.0886
                      }
                    }
                  }
                }
                JOINT RightHandPinky1
                {
                  OFFSET -7.9094 -0.601105 -3.4825
                  CHANNELS 3 Zrotation Xrotation Yrotation
                  JOINT RightHandPinky2
                  {
                    OFFSET -2.2874 -0.477005 -0.6314
                    CHANNELS 3 Zrotation Xrotation Yrotation
                    JOINT RightHandPinky3
                    {
                      OFFSET -1.6774 -0.349396 -0.4633
                      CHANNELS 3 Zrotation Xrotation Yrotation
                      End Site
                      {
                        OFFSET -1.4888 -0.4091 -0.3416
                      }
                    }
                  }
                }
                JOINT RightHandThumb1
                {
                  OFFSET -1.833 -1.38751 1.3896
                  CHANNELS 3 Zrotation Xrotation Yrotation
                  JOINT RightHandThumb2
                  {
                    OFFSET -3.41299 -1.12099 2.5732
                    CHANNELS 3 Zrotation Xrotation Yrotation
                    JOINT RightHandThumb3
                    {
                      OFFSET -2.24741 -0.804108 1.6192
                      CHANNELS 3 Zrotation Xrotation Yrotation
                      End Site
                      {
                        OFFSET -1.6527 -0.5689 1.1317
                      }
                    }
                  }
                }
              }
            }
          }
        }
      }
    }
  }
  JOINT RightUpLeg
  {
    OFFSET -9.1966 3.8861 -0.7581
    CHANNELS 3 Zrotation Xrotation Yrotation
    JOINT RightLeg
    {
      OFFSET -0.7359 -41.0265 0
      CHANNELS 3 Zrotation Xrotation Yrotation
      JOINT RightFoot
      {
        OFFSET 0 -40.2855 0
        CHANNELS 3 Zrotation Xrotation Yrotation
        JOINT RightToeBase
        {
          OFFSET 0 -5.6122 11.7359
          CHANNELS 3 Zrotation Xrotation Yrotation
          End Site
          {
            OFFSET 0 0 7.8731
          }
        }
      }
    }
  }
  JOINT LeftUpLeg
  {
    OFFSET 9.1965 3.8864 -0.7581
    CHANNELS 3 Zrotation Xrotation Yrotation
    JOINT LeftLeg
    {
      OFFSET 0.7359 -41.0268 0
      CHANNELS 3 Zrotation Xrotation Yrotation
      JOINT LeftFoot
      {
        OFFSET 0 -40.2855 0
        CHANNELS 3 Zrotation Xrotation Yrotation
        JOINT LeftToeBase
        {
          OFFSET 0 -5.6122 11.7359
          CHANNELS 3 Zrotation Xrotation Yrotation
          End Site
          {
            OFFSET 0 0 7.8731
          }
        }
      }
    }
  }
}
MOTION
Frames:	4
Frame Time:	0.0333333
5.84602e-005 68.8428 3.50346 0 0 -0 0 0 -0 0 0 -0 0 0 -0 0 0 -0 0 0 -0 0 0 -0 0 0 -0 0 0 -0 0 0 -0 0 0 -0 0 0 -0 0 0 -0 0 0 -0 -0.0146107 -8.87603e-005 -2.63497e-007 2.99804e-018 -2.42657e-020 -1.42182e-022 0 0 -0 -0.0187562 -0.001176 5.858e-005 5.06224e-018 3.88251e-019 1.21329e-020 0 0 -0 -0.012269 -0.00324817 0.000675346 -1.74678e-018 3.88251e-019 -0 0 0 -0 0 0 -0 0 0 -0 0 0 -0 0 0 -0 0 0 -0 0 0 -0 0 0 -0 0 0 -0 0 0 -0 0 0 -0 0.0149955 -9.10982e-005 2.64101e-007 -9.69331e-018 1.21329e-020 -4.7394e-023 0 0 -0 0.0189956 -0.00119102 -5.96516e-005 -5.41541e-019 0 2.42657e-020 0 0 -0 0.0122698 -0.00324857 -0.000673756 -2.00796e-019 0 -1.94126e-019 0 0 -0 0 0 -0 0 0 -0 3.39842 1.33031 -0.0637918 -5.65207e-008 0.834868 -0.000436188 -3.39935 -2.16518 -0.0642563 -8.89002e-024 -1.18485e-023 -1.48106e-024 -3.39844 1.35642 0.0640283 -3.18788e-007 0.782166 -0.000588827 3.39931 -2.13858 0.0634662 1.1399e-023 0 -0 
-2.99047 34.1846 14.0422 58.3722 36.7817 6.96815 -2.94195 3.73662 -1.2693 -5.819 7.5328 -2.35192 -5.81899 7.53279 -2.35192 -13.2462 -0.323511 3.69697 -0.644725 -0.922321 14.2258 -10.446 6.27855 -5.96155 -24.7784 -37.5727 -3.19644 -60.0366 6.91653 -12.5546 1.12445 -26.5715 9.34188 1.59028e-015 -9.54166e-015 7.95139e-015 -6.36111e-015 0 6.36111e-015 -1.59028e-015 0 -3.18055e-015 1.59028e-015 -9.54166e-015 7.95139e-015 -0.0145918 -9.00766e-005 8.9242e-008 8.82781e-032 -3.18055e-015 1.59028e-015 1.59028e-015 -9.54166e-015 7.95139e-015 -0.0187765 -0.00118159 6.14957e-005 1.59028e-015 -3.18055e-015 9.54166e-015 1.59028e-015 -9.54166e-015 7.95139e-015 -0.0123038 -0.00326077 0.000670768 4.77083e-015 9.54166e-015 7.95139e-015 1.59028e-015 -9.54166e-015 7.95139e-015 -6.36111e-015 0 6.36111e-015 -1.59028e-015 0 -3.18055e-015 -0.903594 0.564883 6.53546 2.02601 15.5328 7.01707 -8.58341 -4.36647 7.68845 -5.43067 4.81283 10.503 9.54166e-015 -1.59028e-015 -3.97569e-015 -2.20695e-032 -7.95139e-016 -1.59028e-015 -2.20695e-032 -7.95139e-016 -1.59028e-015 9.54166e-015 -1.59028e-015 -3.97569e-015 0.0149589 -9.31843e-005 -4.63748e-006 3.18055e-015 -7.95139e-016 -0 9.54166e-015 -1.59028e-015 -3.97569e-015 0.0190232 -0.00119543 -6.15403e-005 -1.32428e-007 1.49469e-009 1.11198e-006 9.54166e-015 -1.59028e-015 -3.97569e-015 0.0123344 -0.0032702 -0.00068893 -1.31781e-007 1.62356e-009 1.11205e-006 9.54166e-015 -1.59028e-015 -3.97569e-015 -2.20695e-032 -7.95139e-016 -1.59028e-015 -2.20695e-032 -7.95139e-016 -1.59028e-015 -4.15585 -17.0675 -14.6387 -0.577802 31.1873 -0.387611 1.75531 5.78763 0.866731 1.45786e-005 -2.46104e-006 -8.50304e-007 19.2923 -38.8549 46.7416 6.13904 46.737 -5.83661 9.16492 11.9108 -18.0035 -2.64834e-031 3.18055e-015 4.77083e-015 
-12.1051 5.84212 23.9485 91.6452 67.2348 28.1142 -5.57941 6.84342 -2.58115 -10.9627 13.9013 -4.5243 -10.9627 13.9013 -4.52432 -24.9241 -0.62637 6.95592 -0.847627 -1.62012 26.8118 -18.5897 11.6726 -11.4063 -56.5024 -70.3141 -14.3079 -110.602 12.2186 -24.0706 12.4745 -48.094 23.961 -6.88276e-009 6.958e-007 1.02715e-006 6.88276e-009 -6.958e-007 -1.02715e-006 -6.88276e-009 6.958e-007 1.02715e-006 -6.88276e-009 6.958e-007 1.02715e-006 -0.0146033 -8.70328e-005 -3.47009e-006 8.72245e-009 -6.95658e-007 -1.02723e-006 -6.88276e-009 6.958e-007 1.02715e-006 -0.0187442 -0.00117689 5.77756e-005 9.23419e-009 -6.95483e-007 -1.02727e-006 -6.88276e-009 6.958e-007 1.02715e-006 -0.0122379 -0.00324132 0.000666593 3.18055e-015 -3.18055e-015 -9.54166e-015 -6.88276e-009 6.958e-007 1.02715e-006 6.88276e-009 -6.958e-007 -1.02715e-006 -6.88276e-009 6.958e-007 1.02715e-006 -1.80723 1.04876 12.2997 0.271059 28.6835 14.5548 -15.1981 -8.03755 14.5908 -11.6892 8.67707 19.9572 -1.01123e-006 1.58214e-006 -1.83832e-008 1.98785e-015 -3.18055e-015 -0 -1.01123e-006 1.58214e-006 -1.83832e-008 -1.01123e-006 1.58214e-006 -1.83832e-008 0.0149818 -8.98254e-005 -9.66101e-007 -1.01119e-006 1.58213e-006 -1.85893e-008 -1.01123e-006 1.58214e-006 -1.83832e-008 0.0189765 -0.00118815 -5.87114e-005 -1.01118e-006 1.58213e-006 -1.86349e-008 -1.01123e-006 1.58214e-006 -1.83832e-008 0.0122737 -0.00324856 -0.000678097 -1.01121e-006 1.58212e-006 -1.8526e-008 -1.01123e-006 1.58214e-006 -1.83832e-008 1.98785e-015 -3.18055e-015 -0 -1.01123e-006 1.58214e-006 -1.83832e-008 -18.9803 -30.907 -31.0716 -2.21705 60.4845 0.133995 5.81601 10.7464 1.82227 -6.19647e-006 -3.75283e-006 -7.54239e-006 66.2967 -25.8993 91.8696 48.8133 76.7786 -46.0508 23.9738 23.9641 -34.9024 8.23128e-007 2.85425e-007 -1.71258e-006 
-16.3409 -5.63781 27.9168 82.7329 75.1426 56.2015 -6.53887 7.94744 -3.09642 -12.8249 16.1896 -5.32861 -12.8249 16.1896 -5.3286 -29.1704 -0.843822 8.08772 -0.83988 -1.92291 31.399 -21.3461 13.6072 -13.4744 -88.8656 -81.0545 -38.9337 -128.401 13.7824 -28.4653 21.189 -54.6375 33.2189 2.20844e-006 -1.40237e-006 4.95663e-007 5.85175e-007 -6.9378e-007 -6.99279e-007 3.25325e-006 -5.26984e-007 2.81888e-007 2.20844e-006 -1.40237e-006 4.95663e-007 -0.0146033 -8.86362e-005 -2.43581e-006 2.5512e-006 -2.25618e-007 8.5976e-007 2.20844e-006 -1.40237e-006 4.95663e-007 -0.0187332 -0.00117605 5.45939e-005 3.2531e-006 -5.27042e-007 2.81769e-007 2.20844e-006 -1.40237e-006 4.95663e-007 -0.0122556 -0.00324614 0.000678699 3.25315e-006 -5.27061e-007 2.81745e-007 2.20844e-006 -1.40237e-006 4.95663e-007 5.85175e-007 -6.9378e-007 -6.99279e-007 3.25325e-006 -5.26984e-007 2.81888e-007 -2.15082 1.22962 14.3124 -1.40217 33.2007 17.9138 -17.3844 -9.29693 17.1464 -14.2944 9.9248 23.4628 -1.49089e-015 -3.47873e-016 -0 -9.63604e-009 -2.53953e-008 -5.34459e-007 -1.68967e-015 -9.93923e-017 -0 -1.49089e-015 -3.47873e-016 -0 0.0150053 -9.11232e-005 -1.3707e-006 -1.67725e-015 4.96962e-016 1.59028e-015 -1.49089e-015 -3.47873e-016 -0 0.018996 -0.00119095 -5.97355e-005 -1.13059e-015 7.45443e-016 -1.59028e-015 -1.49089e-015 -3.47873e-016 -0 0.0122657 -0.00324652 -0.000676582 -8.69683e-016 1.04362e-015 -3.18055e-015 -1.49089e-015 -3.47873e-016 -0 -9.63604e-009 -2.53953e-008 -5.34459e-007 -1.68967e-015 -9.93923e-017 -0 -26.01 -34.1794 -38.2677 -3.71483 70.1752 1.01055 6.98801 12.8647 2.29336 7.95139e-016 -9.54166e-015 -2.78299e-015 78.1178 -14.1373 96.0628 115.717 77.3388 -110.777 30.7094 25.4878 -41.5252 1.56676e-007 8.54326e-008 -9.34169e-007 
